<svg width="364" height="216" viewBox="0 0 364 216" fill="none" xmlns="http://www.w3.org/2000/svg">
<g clip-path="url(#clip0_3402_2628)">
<path d="M100.477 178.617C128.461 178.617 142.456 165.403 142.456 138.971V0.804199H187.06V138.388C187.06 163.263 179.769 182.361 165.185 195.679C150.612 208.986 129.237 215.638 101.06 215.638C75.2113 215.638 54.9456 209.132 40.2686 196.117C25.6019 183.091 18.2686 163.945 18.2686 138.679V0.804199H62.8727V137.804C62.8727 150.236 66.2269 160.148 72.9352 167.533C79.6436 174.924 88.8206 178.617 100.477 178.617Z" fill="#ffffff"/>
<path d="M349.134 100.492C349.134 123.231 345.535 142.861 338.343 159.388C331.145 175.903 321.082 188.486 308.155 197.138C295.239 205.778 280.426 210.096 263.718 210.096H171.593V0.804199H265.468C283.926 0.804199 299.416 5.13233 311.947 13.7834C324.489 22.424 333.822 34.2313 339.947 49.2C346.072 64.1584 349.134 81.2573 349.134 100.492ZM304.53 103.408C304.53 59.1063 289.077 36.95 258.176 36.95H214.447V173.95H257.884C272.259 173.95 283.624 167.638 291.989 155.013C300.348 142.377 304.53 125.174 304.53 103.408Z" fill="#ffffff"/>
<path d="M0.588383 104.839L363.411 104.281" stroke="#ffffff" stroke-width="19"/>
<path d="M8.59912 104.839H123.891" stroke="#0084FF" stroke-width="8"/>
<path d="M123.891 104.839L239.104 104.839" stroke="white" stroke-width="8"/>
<path d="M239.104 104.839H354.427" stroke="#ED0000" stroke-width="8"/>
</g>
<defs>
<clipPath id="clip0_3402_2628">
<rect width="364" height="216" fill="white"/>
</clipPath>
</defs>
</svg>
